<?xml version="1.0" encoding="UTF-8" standalone="no"?>
<!DOCTYPE svg PUBLIC "-//W3C//DTD SVG 1.0//EN" "http://www.w3.org/TR/2001/PR-SVG-20010719/DTD/svg10.dtd">
<svg width="23cm" height="6cm" viewBox="-2 -2 443 103" xmlns="http://www.w3.org/2000/svg" xmlns:xlink="http://www.w3.org/1999/xlink">
  <g>
    <polygon style="fill: none; fill-opacity:0; stroke-width: 2; stroke: #000000" points="0,0 60.5743,0 80.7657,20.1914 80.7657,100.957 0,100.957 "/>
    <polyline style="fill: none; fill-opacity:0; stroke-width: 2; stroke: #000000" points="60.5743,0 60.5743,20.1914 80.7657,20.1914 80.7657,20.1914 "/>
  </g>
  <text font-size="18.0622" style="fill: #000000;text-anchor:middle;font-family:Latin Modern Roman;font-style:normal;font-weight:normal" x="40.3828" y="50.4786">
    <tspan x="40.3828" y="50.4786">Source</tspan>
    <tspan x="40.3828" y="73.0564">code</tspan>
  </text>
  <g>
    <rect style="fill: none; fill-opacity:0; stroke-width: 2; stroke: #000000" x="340" y="0" width="100" height="83.3333"/>
    <rect style="fill: none; fill-opacity:0; stroke-width: 0.2; stroke: #000000" x="340" y="0" width="100" height="83.3333"/>
    <rect style="fill: none; fill-opacity:0; stroke-width: 2; stroke: #000000" x="345.556" y="5.55556" width="88.8889" height="66.6667"/>
    <rect style="fill: none; fill-opacity:0; stroke-width: 0.2; stroke: #000000" x="345.556" y="5.55556" width="88.8889" height="66.6667"/>
    <polygon style="fill: none; fill-opacity:0; stroke-width: 2; stroke: #000000" points="356.667,83.3333 423.333,83.3333 406.667,88.8889 373.333,88.8889 "/>
    <polygon style="fill: none; fill-opacity:0; stroke-width: 0.2; stroke: #000000" points="356.667,83.3333 423.333,83.3333 406.667,88.8889 373.333,88.8889 "/>
    <rect style="fill: none; fill-opacity:0; stroke-width: 2; stroke: #000000" x="373.333" y="88.8889" width="33.3333" height="5.55556"/>
    <rect style="fill: none; fill-opacity:0; stroke-width: 0.2; stroke: #000000" x="373.333" y="88.8889" width="33.3333" height="5.55556"/>
    <rect style="fill: none; fill-opacity:0; stroke-width: 2; stroke: #000000" x="356.667" y="94.4444" width="66.6667" height="5.55556"/>
    <rect style="fill: none; fill-opacity:0; stroke-width: 0.2; stroke: #000000" x="356.667" y="94.4444" width="66.6667" height="5.55556"/>
  </g>
  <text font-size="18.0622" style="fill: #000000;text-anchor:middle;font-family:Latin Modern Roman;font-style:normal;font-weight:normal" x="390" y="49">
    <tspan x="390" y="49">Output</tspan>
  </text>
  <g>
    <rect style="fill: none; fill-opacity:0; stroke-width: 2; stroke: #000000" x="157.3" y="20" width="107.5" height="60"/>
    <text font-size="18.0622" style="fill: #000000;text-anchor:middle;font-family:Latin Modern Roman;font-style:normal;font-weight:normal" x="211.05" y="59.0672">
      <tspan x="211.05" y="59.0672">Interpreter</tspan>
    </text>
  </g>
  <polyline style="fill: none; fill-opacity:0; stroke-width: 2; stroke: #000000" points="264.8,65 280,80 280,40 264.8,50 "/>
  <polyline style="fill: none; fill-opacity:0; stroke-width: 2; stroke: #000000" points="157.3,50 140,60 140,20 157.3,35 "/>
  <g>
    <line style="fill: none; fill-opacity:0; stroke-width: 2; stroke: #000000" x1="83.992" y1="41.9208" x2="132.902" y2="42.3789"/>
    <polyline style="fill: none; fill-opacity:0; stroke-width: 2; stroke: #000000" points="125.092,47.306 135.138,42.3999 125.185,37.3064 "/>
  </g>
  <g>
    <line style="fill: none; fill-opacity:0; stroke-width: 2; stroke: #000000" x1="283.292" y1="61.5208" x2="332.202" y2="61.9789"/>
    <polyline style="fill: none; fill-opacity:0; stroke-width: 2; stroke: #000000" points="324.392,66.906 334.438,61.9999 324.485,56.9064 "/>
  </g>
</svg>
