<?xml version="1.0" encoding="UTF-8" standalone="no"?>
<!DOCTYPE svg PUBLIC "-//W3C//DTD SVG 1.0//EN" "http://www.w3.org/TR/2001/PR-SVG-20010719/DTD/svg10.dtd">
<svg width="40cm" height="7cm" viewBox="-2 -2 783 127" xmlns="http://www.w3.org/2000/svg" xmlns:xlink="http://www.w3.org/1999/xlink">
  <g>
    <polygon style="fill: none; fill-opacity:0; stroke-width: 2; stroke: #000000" points="0,0 60.5743,0 80.7657,20.1914 80.7657,100.957 0,100.957 "/>
    <polyline style="fill: none; fill-opacity:0; stroke-width: 2; stroke: #000000" points="60.5743,0 60.5743,20.1914 80.7657,20.1914 80.7657,20.1914 "/>
  </g>
  <text font-size="18.0622" style="fill: #000000;text-anchor:middle;font-family:Latin Modern Roman;font-style:normal;font-weight:normal" x="40.3828" y="50.4786">
    <tspan x="40.3828" y="50.4786">Source</tspan>
    <tspan x="40.3828" y="73.0564">code</tspan>
  </text>
  <g>
    <rect style="fill: none; fill-opacity:0; stroke-width: 2; stroke: #000000" x="160" y="20" width="100" height="60"/>
    <text font-size="18.0622" style="fill: #000000;text-anchor:middle;font-family:Latin Modern Roman;font-style:normal;font-weight:normal" x="210" y="59.0672">
      <tspan x="210" y="59.0672">Compiler</tspan>
    </text>
  </g>
  <polyline style="fill: none; fill-opacity:0; stroke-width: 2; stroke: #000000" points="160,50 140,60 140,20 160,35 "/>
  <polyline style="fill: none; fill-opacity:0; stroke-width: 2; stroke: #000000" points="260,65 280,80 280,40 260,50 "/>
  <g>
    <rect style="fill: none; fill-opacity:0; stroke-width: 2; stroke: #000000" x="680" y="0" width="100" height="83.3333"/>
    <rect style="fill: none; fill-opacity:0; stroke-width: 0.2; stroke: #000000" x="680" y="0" width="100" height="83.3333"/>
    <rect style="fill: none; fill-opacity:0; stroke-width: 2; stroke: #000000" x="685.556" y="5.55556" width="88.8889" height="66.6667"/>
    <rect style="fill: none; fill-opacity:0; stroke-width: 0.2; stroke: #000000" x="685.556" y="5.55556" width="88.8889" height="66.6667"/>
    <polygon style="fill: none; fill-opacity:0; stroke-width: 2; stroke: #000000" points="696.667,83.3333 763.333,83.3333 746.667,88.8889 713.333,88.8889 "/>
    <polygon style="fill: none; fill-opacity:0; stroke-width: 0.2; stroke: #000000" points="696.667,83.3333 763.333,83.3333 746.667,88.8889 713.333,88.8889 "/>
    <rect style="fill: none; fill-opacity:0; stroke-width: 2; stroke: #000000" x="713.333" y="88.8889" width="33.3333" height="5.55556"/>
    <rect style="fill: none; fill-opacity:0; stroke-width: 0.2; stroke: #000000" x="713.333" y="88.8889" width="33.3333" height="5.55556"/>
    <rect style="fill: none; fill-opacity:0; stroke-width: 2; stroke: #000000" x="696.667" y="94.4444" width="66.6667" height="5.55556"/>
    <rect style="fill: none; fill-opacity:0; stroke-width: 0.2; stroke: #000000" x="696.667" y="94.4444" width="66.6667" height="5.55556"/>
  </g>
  <text font-size="18.0622" style="fill: #000000;text-anchor:middle;font-family:Latin Modern Roman;font-style:normal;font-weight:normal" x="730" y="49">
    <tspan x="730" y="49">Output</tspan>
  </text>
  <g>
    <polygon style="fill: none; fill-opacity:0; stroke-width: 2; stroke: #000000" points="340,0 400.574,0 420.766,20.1914 420.766,100.957 340,100.957 "/>
    <polyline style="fill: none; fill-opacity:0; stroke-width: 2; stroke: #000000" points="400.574,0 400.574,20.1914 420.766,20.1914 420.766,20.1914 "/>
  </g>
  <text font-size="18.0622" style="fill: #000000;text-anchor:middle;font-family:Latin Modern Roman;font-style:normal;font-weight:normal" x="380.382" y="50.4786">
    <tspan x="380.382" y="50.4786">Byte</tspan>
    <tspan x="380.382" y="73.0564">code</tspan>
  </text>
  <text font-size="18.0622" style="fill: #000000;text-anchor:start;font-family:Latin Modern Roman;font-style:italic;font-weight:normal" x="1" y="120">
    <tspan x="1" y="120">Hello.java</tspan>
  </text>
  <text font-size="18.0622" style="fill: #000000;text-anchor:start;font-family:Latin Modern Roman;font-style:italic;font-weight:normal" x="340" y="120">
    <tspan x="340" y="120">Hello.class</tspan>
  </text>
  <g>
    <rect style="fill: none; fill-opacity:0; stroke-width: 2; stroke: #000000" x="497.3" y="20" width="107.5" height="60"/>
    <text font-size="18.0622" style="fill: #000000;text-anchor:middle;font-family:Latin Modern Roman;font-style:normal;font-weight:normal" x="551.05" y="59.0672">
      <tspan x="551.05" y="59.0672">Interpreter</tspan>
    </text>
  </g>
  <text font-size="18.0622" style="fill: #000000;text-anchor:start;font-family:Latin Modern Mono;font-style:normal;font-weight:700" x="134" y="100">
    <tspan x="134" y="100">javac Hello.java</tspan>
  </text>
  <text font-size="18.0622" style="fill: #000000;text-anchor:start;font-family:Latin Modern Mono;font-style:normal;font-weight:700" x="503.55" y="100">
    <tspan x="503.55" y="100">java Hello</tspan>
  </text>
  <polyline style="fill: none; fill-opacity:0; stroke-width: 2; stroke: #000000" points="604.8,65 620,80 620,40 604.8,50 "/>
  <polyline style="fill: none; fill-opacity:0; stroke-width: 2; stroke: #000000" points="497.3,50 480,60 480,20 497.3,35 "/>
  <g>
    <line style="fill: none; fill-opacity:0; stroke-width: 2; stroke: #000000" x1="84" y1="41" x2="132.911" y2="41.4581"/>
    <polyline style="fill: none; fill-opacity:0; stroke-width: 2; stroke: #000000" points="125.1,46.3852 135.147,41.4791 125.194,36.3856 "/>
  </g>
  <g>
    <line style="fill: none; fill-opacity:0; stroke-width: 2; stroke: #000000" x1="283.692" y1="61.3208" x2="332.602" y2="61.7789"/>
    <polyline style="fill: none; fill-opacity:0; stroke-width: 2; stroke: #000000" points="324.792,66.706 334.838,61.7999 324.885,56.7064 "/>
  </g>
  <g>
    <line style="fill: none; fill-opacity:0; stroke-width: 2; stroke: #000000" x1="423.992" y1="41.9208" x2="472.902" y2="42.3789"/>
    <polyline style="fill: none; fill-opacity:0; stroke-width: 2; stroke: #000000" points="465.092,47.306 475.138,42.3999 465.185,37.3064 "/>
  </g>
  <g>
    <line style="fill: none; fill-opacity:0; stroke-width: 2; stroke: #000000" x1="623.292" y1="61.5208" x2="672.202" y2="61.9789"/>
    <polyline style="fill: none; fill-opacity:0; stroke-width: 2; stroke: #000000" points="664.392,66.906 674.438,61.9999 664.485,56.9064 "/>
  </g>
</svg>
